OFF
256 0 0
0.198803 -0.461603 0.864523
0.818494 -0.550314 0.164991
0.697886 0.715532 0.0311323
0.536457 -0.324694 0.778966
-0.486426 -0.533626 0.691833
0.729351 0.512873 0.452779
-0.104046 0.574848 0.811618
-0.956904 -0.290316 0.0071187
0.964563 -0.26383 0.00353873
0.975254 -0.218712 0.0323051
0.527415 0.804157 0.274161
0.982803 -0.183689 0.0188903
0.439287 -0.121164 0.890138
-0.975276 0.0898688 0.201894
0.22097 -0.676021 0.702971
0.0613757 0.0760069 0.995217
-0.40618 0.217481 0.887536
0.805138 -0.471149 0.360237
0.260155 -0.957883 0.121569
0.840163 -0.218576 0.496337
-0.546713 -0.812572 0.202071
0.750162 0.171206 0.638706
0.359098 -0.499985 0.788076
0.867519 -0.381942 0.31864
-0.345955 -0.720278 0.601261
0.0469496 -0.964641 0.259353
-0.0367076 -0.850161 0.525241
-0.636032 0.511352 0.577912
-0.315318 -0.466986 0.826135
0.340254 0.630001 0.698087
-0.267012 -0.94213 0.20272
0.715445 0.145036 0.68345
-0.166981 0.977672 0.127571
0.503398 0.150277 0.850886
0.819464 0.573101 0.00593156
0.438216 -0.88105 0.178097
-0.164594 -0.455636 0.874817
-0.397635 0.886607 0.23625
0.818776 -0.264775 0.509411
0.919751 0.20223 0.336394
-0.450205 0.18237 0.874103
-0.451222 0.415487 0.789791
0.0307524 -0.314426 0.948784
0.0749517 -0.256781 0.963559
0.311559 0.743863 0.591269
-0.838634 0.0540088 0.542011
-0.809027 0.287906 0.512431
-0.593359 -0.778125 0.206025
-0.251762 -0.964549 0.0791252
0.0288923 -0.980878 0.192469
-0.155587 0.942987 0.294226
-0.0320713 -0.0678257 0.997182
-0.537561 -0.792045 0.289296
0.4877 0.79711 0.356039
0.615288 0.570544 0.543967
-0.974057 0.0100128 0.226083
0.875825 -0.226376 0.426245
-0.533771 0.8366 0.123243
-0.843916 -0.501008 0.191825
0.0307461 0.185166 0.982226
0.00783251 -0.983863 0.178754
-0.0314899 0.983316 0.179159
-0.997504 -0.037353 0.059926
-0.254563 -0.768269 0.587334
0.632347 -0.517106 0.576835
0.878427 -0.229715 0.419043
-0.515997 -0.157732 0.841942
0.62551 0.742943 0.238269
0.37743 0.514671 0.769844
-0.0462966 0.98064 0.190265
0.539591 -0.841849 0.0114784
-0.0200306 0.744294 0.667552
0.280608 -0.656524 0.700168
0.00667017 0.163861 0.986461
0.561861 -0.267574 0.782762
-0.585176 0.805598 0.0926353
0.325488 0.933325 0.151532
-0.00680305 0.998965 0.0449824
-0.727297 -0.649732 0.221102
-0.985872 0.167031 0.0125404
-0.215472 0.290161 0.932405
0.475838 -0.854972 0.206402
-0.786028 -0.466618 0.405496
-0.916993 -0.296189 0.267201
0.826398 -0.47348 0.304767
-0.21153 0.923439 0.32018
0.0359165 -0.79337 0.60768
0.0210563 -0.898512 0.438443
-0.446284 0.416742 0.791932
-0.80245 -0.364274 0.472629
0.713635 0.368453 0.595792
0.71891 0.253479 0.647238
-0.896303 -0.175638 0.407176
0.13947 -0.7525 0.643655
0.914706 -0.402598 0.0350336
0.365694 0.388965 0.845562
-0.722869 -0.333653 0.605092
-0.775741 0.151061 0.612704
0.959312 0.071874 0.273045
-0.411851 0.675671 0.61143
0.52282 0.849354 0.0725072
0.226839 -0.794091 0.563882
-0.371657 0.918158 0.137322
-0.910307 -0.16497 0.37964
0.239688 0.409087 0.880453
-0.680762 -0.507674 0.528043
-0.0611768 0.748964 0.65978
-0.5003 -0.727084 0.470158
-0.357373 -0.889767 0.283899
-0.0116133 -0.999865 0.0116206
-0.914155 0.293592 0.279507
0.861178 0.500729 0.0874225
0.114477 0.861605 0.494502
0.7674 -0.464727 0.441731
0.499568 0.709656 0.49681
0.386678 -0.749364 0.537526
-0.865563 -0.212655 0.453408
0.833323 -0.0202425 0.552416
0.872382 0.466654 0.145549
-0.859428 0.323652 0.395769
0.678085 0.537347 0.501456
0.971284 -0.237074 0.0200744
0.259614 0.00756147 0.965683
0.155838 -0.987515 0.022998
0.316416 -0.7031 0.636814
0.642756 -0.695814 0.32048
0.652682 0.382878 0.653767
-0.799775 0.582742 0.144125
-0.0183948 0.296227 0.95494
0.291006 -0.894314 0.339881
-0.879709 0.404454 0.250059
0.421813 -0.265289 0.867004
0.415186 0.909566 0.0176395
-0.0369134 0.424565 0.904645
0.425168 0.551973 0.717327
0.643283 0.739613 0.197889
0.263072 -0.282652 0.922443
-0.814029 -0.44555 0.372616
-0.120793 -0.0391309 0.991906
0.580951 0.748518 0.319713
0.53358 -0.705744 0.466067
-0.595922 -0.574267 0.561333
-0.355214 0.482809 0.800449
-0.505155 -0.0421512 0.861999
-0.641453 0.455 0.617667
0.862801 0.446241 0.237579
0.0178305 0.281045 0.959529
0.475005 0.465075 0.747044
0.350491 0.794924 0.495229
0.0620877 0.982179 0.177395
-0.86776 0.496647 0.0182769
0.936776 0.30213 0.176545
0.586296 -0.410867 0.698173
0.2877 -0.104013 0.952056
-0.657904 0.0378072 0.752152
-0.88798 0.0600545 0.455944
-0.520362 0.846533 0.112274
0.610651 -0.443349 0.65616
-0.174218 0.187292 0.966731
0.418829 0.351851 0.837128
0.187511 -0.974577 0.122636
-0.472064 0.391832 0.789698
0.0358163 0.685441 0.727247
-0.7093 0.489161 0.507558
0.517818 0.35887 0.77658
0.581131 0.634424 0.509699
0.933493 -0.355753 0.0450566
0.9021 -0.255125 0.348031
-0.863834 -0.441572 0.242496
0.767727 0.302735 0.564754
0.0854089 0.890388 0.447119
-0.194208 0.256444 0.946847
0.318159 -0.663162 0.677489
0.799951 0.0776637 0.595019
0.959635 0.265924 0.0915664
0.478347 0.857179 0.190863
-0.397253 -0.54043 0.741704
-0.0564676 -0.489535 0.870153
-0.516579 -0.690238 0.506673
-0.746464 0.23776 0.6215
-0.918 -0.279316 0.28153
-0.201434 0.67246 0.712195
-0.0308858 -0.925875 0.376564
0.36754 0.910782 0.188126
-0.280953 -0.669642 0.687492
0.320143 0.721219 0.61429
-0.511366 0.555047 0.65607
-0.692297 -0.697699 0.184231
0.178162 -0.926761 0.330715
0.68446 0.382614 0.620581
0.7593 -0.360884 0.541503
0.115441 -0.708322 0.696386
-0.992565 0.0825634 0.089435
-0.790505 0.337031 0.511382
-0.916017 0.318236 0.24421
-0.156764 0.424112 0.891938
-0.794016 -0.0424895 0.60641
-0.989268 -0.0670556 0.129813
0.317054 -0.700698 0.639139
0.277017 -0.957284 0.0828821
-0.548421 -0.7008 0.456195
-0.369097 0.352725 0.859856
0.22634 -0.555488 0.800127
-0.977529 -0.204522 0.0510749
-0.591446 0.806284 0.00989008
0.602853 -0.243072 0.759924
0.128756 -0.12724 0.983479
-0.752362 -0.245274 0.611385
-0.700588 -0.678704 0.220311
-0.727814 -0.443146 0.523362
0.233013 0.856873 0.459862
-0.0605093 0.181383 0.981549
-0.978447 0.180772 0.0998169
0.0724677 0.588142 0.805505
0.554845 -0.824106 0.114002
0.282077 0.779873 0.558777
0.0788619 0.517287 0.852171
0.310288 0.570408 0.760498
0.137043 0.970093 0.200347
-0.781451 0.334099 0.526985
-0.155148 0.384067 0.910177
0.828456 -0.4328 0.355449
-0.842227 0.394983 0.366936
0.362185 0.834316 0.415618
0.795177 -0.541272 0.273346
0.757701 -0.0969373 0.645362
-0.878515 0.355065 0.319593
0.732469 0.614678 0.292679
-0.0276639 0.545473 0.837672
-0.419649 0.271076 0.866264
-0.690813 -0.468816 0.550444
-0.0219956 0.286105 0.957946
-0.781825 -0.589651 0.202636
-0.133698 -0.537737 0.832444
0.174056 0.970163 0.168786
0.545945 0.496256 0.675036
-0.271421 0.898801 0.34422
-0.341235 0.739851 0.57981
-0.867227 0.447609 0.218091
-0.461576 -0.0228088 0.886808
0.85907 0.511817 0.00646532
-0.0450195 0.572844 0.818427
0.306092 -0.922012 0.237069
0.667651 0.123974 0.734079
0.590396 -0.283029 0.755862
-0.0539201 -0.434075 0.899262
-0.753113 0.053994 0.655672
-0.61269 -0.329472 0.718373
0.0797757 0.996319 0.0313597
-0.597397 0.158 0.786227
0.894473 -0.211249 0.394072
-0.606645 -0.183735 0.773449
-0.581137 -0.077632 0.810095
0.0924463 0.795825 0.598429
-0.807828 0.0564437 0.586709
-0.396882 -0.392221 0.829848
